{
	"asset":{
		"generator":"Khronos glTF Blender I/O v3.6.27",
		"version":"2.0"
	},
	"scene":0,
	"scenes":[
		{
			"name":"Scene",
			"nodes":[
				0
			]
		}
	],
	"nodes":[
		{
			"mesh":0,
			"name":"Sphere"
		}
	],
	"materials":[
		{
			"doubleSided":true,
			"name":"Sphere",
			"pbrMetallicRoughness":{
				"baseColorFactor":[
					0.800000011920929,
					0.800000011920929,
					0.800000011920929,
					1
				],
				"metallicFactor":0,
				"roughnessFactor":0.5
			}
		}
	],
	"meshes":[
		{
			"name":"Sphere.001",
			"primitives":[
				{
					"attributes":{
						"POSITION":0,
						"NORMAL":1,
						"TEXCOORD_0":2
					},
					"indices":3,
					"material":0
				}
			]
		}
	],
	"accessors":[
		{
			"bufferView":0,
			"componentType":5126,
			"count":18719,
			"max":[
				0.9999992847442627,
				1,
				0.9999986290931702
			],
			"min":[
				-0.9999980926513672,
				-1,
				-0.9999974370002747
			],
			"type":"VEC3"
		},
		{
			"bufferView":1,
			"componentType":5126,
			"count":18719,
			"type":"VEC3"
		},
		{
			"bufferView":2,
			"componentType":5126,
			"count":18719,
			"type":"VEC2"
		},
		{
			"bufferView":3,
			"componentType":5123,
			"count":109440,
			"type":"SCALAR"
		}
	],
	"bufferViews":[
		{
			"buffer":0,
			"byteLength":224628,
			"byteOffset":0,
			"target":34962
		},
		{
			"buffer":0,
			"byteLength":224628,
			"byteOffset":224628,
			"target":34962
		},
		{
			"buffer":0,
			"byteLength":149752,
			"byteOffset":449256,
			"target":34962
		},
		{
			"buffer":0,
			"byteLength":218880,
			"byteOffset":599008,
			"target":34963
		}
	],
	"buffers":[
		{
			"byteLength":817888,
			"uri":"data:application/octet-stream;base64,"
		}
	]
}
